<?xml version="1.0" standalone="no"?>
<!DOCTYPE svg PUBLIC "-//W3C//DTD SVG 20010904//EN"
 "http://www.w3.org/TR/2001/REC-SVG-20010904/DTD/svg10.dtd">
<svg version="1.0" xmlns="http://www.w3.org/2000/svg"
 width="1024.000000pt" height="1024.000000pt" viewBox="0 0 1024.000000 1024.000000"
 preserveAspectRatio="xMidYMid meet">

<g transform="translate(0.000000,1024.000000) scale(0.100000,-0.100000)"
fill="#000000" stroke="none">
<path d="M5080 8818 c-17 -24 -33 -53 -37 -66 -5 -22 -6 -22 -32 -5 -74 49
-472 14 -816 -73 -589 -149 -1157 -480 -1591 -926 -468 -480 -793 -1098 -918
-1743 -40 -209 -51 -345 -51 -645 0 -311 13 -440 66 -685 131 -598 446 -1183
885 -1645 158 -165 423 -383 606 -498 341 -215 590 -326 939 -421 229 -62 269
-69 269 -47 0 9 5 16 10 16 6 0 10 4 10 9 0 13 -64 35 -205 71 -737 188 -1367
607 -1836 1223 -372 487 -595 1038 -664 1647 -21 183 -16 590 9 780 78 571
302 1100 681 1605 145 194 397 442 625 616 503 385 1116 622 1728 668 71 6
128 15 130 21 5 14 19 12 40 -6 9 -9 43 -32 75 -51 61 -37 89 -78 102 -146 4
-20 10 -37 14 -37 4 0 15 26 24 58 9 32 26 70 37 85 23 29 88 67 115 67 9 0
15 9 15 25 0 30 11 32 35 5 15 -17 31 -20 91 -20 139 0 377 -37 584 -91 418
-110 734 -254 1090 -500 249 -171 567 -477 749 -719 383 -508 609 -1078 672
-1688 15 -152 6 -641 -15 -782 -74 -489 -247 -938 -521 -1350 -350 -527 -799
-920 -1359 -1191 -193 -93 -388 -164 -591 -213 -82 -21 -161 -43 -175 -50 -14
-7 -37 -16 -52 -20 -33 -7 -37 -26 -7 -26 11 0 17 -4 14 -10 -10 -16 29 -12
161 20 527 126 918 317 1358 666 129 102 401 372 499 494 433 542 685 1138
753 1780 23 216 15 658 -15 845 -102 635 -336 1158 -746 1665 -105 130 -325
351 -460 463 -361 298 -790 527 -1222 651 -360 104 -802 156 -910 107 l-41
-19 -6 21 c-6 26 -64 107 -76 107 -5 0 -22 -19 -40 -42z"/>
<path d="M4920 8661 c-36 -10 -36 -35 1 -62 57 -43 99 -87 99 -103 0 -12 -15
-8 -72 20 -65 32 -79 35 -128 29 -30 -3 -65 -12 -77 -20 -29 -19 -33 -19 -33
4 0 23 15 35 62 50 34 11 68 43 68 63 0 13 -44 9 -230 -17 -264 -37 -433 -75
-602 -137 -46 -16 -91 -32 -100 -35 -25 -7 -22 -32 13 -123 17 -44 28 -84 25
-89 -4 -5 -23 -15 -43 -22 -20 -6 -70 -27 -110 -45 -80 -37 -93 -40 -93 -23 0
6 -13 31 -30 56 -16 24 -30 48 -30 53 0 10 141 70 164 70 33 0 14 -31 -31 -53
-52 -25 -59 -35 -40 -61 12 -17 16 -16 73 10 32 16 61 30 63 31 4 3 -20 88
-40 140 l-8 22 -78 -30 c-133 -51 -433 -220 -433 -244 0 -7 13 -26 30 -41 16
-16 35 -41 41 -56 6 -15 14 -28 17 -28 3 0 29 14 59 30 29 17 62 30 73 30 22
0 26 20 9 51 -10 20 -10 20 -45 0 -35 -21 -84 -28 -84 -13 0 14 30 37 91 71
l57 32 36 -58 c20 -31 36 -60 36 -64 0 -4 -21 -17 -47 -30 -27 -12 -85 -46
-131 -76 -45 -29 -87 -53 -92 -53 -5 0 -12 10 -16 23 -8 25 -84 157 -91 157
-10 0 -152 -102 -243 -175 -316 -252 -610 -589 -794 -909 -31 -54 -55 -100
-52 -103 2 -3 13 0 24 6 12 6 32 11 45 11 17 0 27 7 31 23 5 22 143 237 152
237 2 0 26 -23 54 -51 52 -55 53 -65 11 -103 -24 -22 -23 -22 -37 19 -15 46
-42 39 -75 -20 l-28 -50 30 -1 c41 -2 57 -19 41 -44 -10 -17 -8 -21 18 -35 16
-8 32 -15 35 -15 3 0 26 33 52 73 53 83 137 195 236 316 51 63 65 86 55 90 -8
4 -45 34 -82 68 l-67 62 115 118 115 118 53 -53 53 -53 -75 -69 c-50 -46 -77
-65 -82 -57 -13 20 -10 26 38 77 39 42 45 52 34 65 -20 24 -33 18 -92 -44 -31
-33 -66 -61 -79 -63 -23 -3 -21 -6 26 -53 28 -27 57 -59 65 -72 16 -22 16 -22
85 44 293 276 501 429 774 567 220 111 401 177 656 240 126 30 321 62 430 68
35 3 40 6 40 28 0 21 -7 27 -45 36 -40 9 -45 14 -51 45 -9 40 -4 48 19 31 9
-7 42 -23 72 -37 30 -14 71 -39 91 -54 33 -27 37 -28 68 -15 34 14 34 21 -2
62 -20 22 -20 22 0 22 22 0 63 -39 63 -61 0 -8 -10 -25 -21 -39 -34 -42 -65
-94 -71 -117 -5 -20 -2 -23 26 -23 68 0 116 94 116 225 0 92 -23 143 -83 184
-25 17 -47 31 -49 30 -2 -1 -14 -4 -28 -8z m-276 -128 c3 -21 6 -56 6 -78 l0
-40 -122 -23 c-68 -12 -135 -24 -149 -28 -26 -6 -27 -4 -40 65 -7 39 -9 74 -6
77 4 4 48 15 98 26 75 15 94 16 100 6 16 -24 3 -33 -64 -47 -62 -13 -67 -16
-67 -41 0 -39 18 -52 45 -34 12 8 50 19 84 25 l62 11 -1 52 c-2 69 -3 66 24
66 19 0 24 -6 30 -37z m-379 -194 c-3 -3 -16 -9 -30 -11 -27 -6 -45 14 -45 49
-1 43 -14 46 -81 22 -35 -12 -71 -28 -80 -36 -13 -11 -18 -9 -29 12 -8 16 -10
29 -4 34 5 5 61 25 124 43 l115 35 17 -70 c9 -39 15 -74 13 -78z m-112 -3 c7
-19 -9 -32 -63 -51 -58 -20 -70 -19 -70 8 0 18 9 25 53 38 67 21 74 22 80 5z
m-898 -391 c40 -66 42 -73 18 -82 -10 -4 -40 -22 -66 -40 -26 -19 -52 -31 -57
-28 -20 12 -9 36 30 61 43 29 49 44 25 64 -12 10 -23 6 -59 -24 -24 -20 -50
-36 -58 -36 -7 0 -24 -9 -37 -19 -20 -15 -22 -21 -12 -39 6 -11 23 -30 38 -42
l28 -22 -29 -24 -28 -25 -43 58 -44 58 34 30 c75 68 216 177 222 171 2 -2 19
-29 38 -61z m-570 -614 c-16 -15 -48 -53 -70 -84 -39 -55 -65 -72 -65 -42 0 8
-18 27 -40 41 -22 15 -40 31 -40 36 0 11 62 89 113 145 l30 32 51 -49 51 -50
-30 -29z"/>
<path d="M2567 7344 c-43 -61 -9 -93 49 -46 37 30 39 34 24 63 -16 29 -44 23
-73 -17z"/>
<path d="M5225 8627 c-53 -53 -72 -152 -51 -255 11 -49 -9 -57 -28 -10 l-17
43 -19 -23 c-19 -23 -60 -122 -60 -145 0 -19 58 -107 70 -107 6 0 24 21 41 48
23 35 29 54 24 76 l-5 30 23 -23 c13 -12 41 -25 62 -28 34 -5 38 -4 32 11 -4
10 -7 24 -7 31 0 7 -18 35 -40 61 -28 34 -38 54 -34 69 7 24 71 91 79 83 4 -3
-7 -30 -24 -60 -34 -61 -30 -81 20 -93 29 -7 48 10 31 27 -20 20 102 102 176
119 31 7 33 6 28 -14 -3 -12 -6 -28 -6 -34 0 -8 -13 -13 -29 -13 -33 0 -61
-23 -61 -49 0 -16 13 -19 96 -25 53 -4 136 -14 183 -22 47 -7 101 -14 119 -14
18 0 43 -6 55 -14 12 -8 47 -19 77 -26 221 -50 513 -171 740 -305 204 -120
360 -239 562 -427 l127 -119 55 56 c53 52 70 85 45 85 -6 0 -36 27 -68 61
l-57 61 -23 -20 -24 -19 41 -38 c39 -35 56 -75 31 -75 -6 0 -41 28 -79 63
l-69 62 51 52 51 52 37 -33 c20 -18 73 -71 118 -118 l82 -85 -75 -74 -75 -74
76 -95 c41 -52 91 -113 111 -135 20 -22 45 -57 56 -78 11 -21 26 -41 33 -44
19 -7 60 29 56 50 -4 19 32 25 43 7 6 -10 55 -15 55 -6 0 8 -63 106 -67 106
-3 0 -32 -16 -64 -37 -58 -35 -87 -40 -55 -8 22 22 20 29 -12 67 -16 18 -50
61 -76 95 l-48 61 49 52 48 51 23 -28 c78 -93 98 -133 68 -133 -12 0 -40 31
-73 79 -5 8 -33 -22 -33 -36 0 -8 14 -32 30 -53 17 -21 30 -45 30 -53 0 -25
11 -47 24 -47 7 0 30 13 52 30 21 16 42 30 47 30 4 0 33 -39 64 -87 31 -49 73
-107 94 -130 51 -56 73 -103 94 -200 13 -61 22 -83 37 -90 22 -10 112 -213 99
-225 -3 -4 -21 -10 -38 -14 -28 -6 -31 -4 -26 14 5 19 -21 106 -37 125 -3 4
-3 -21 2 -55 4 -35 10 -87 13 -117 3 -30 7 -57 10 -60 4 -3 28 2 54 12 27 9
53 17 58 17 9 0 27 -50 64 -177 l18 -63 -57 -16 c-31 -9 -62 -21 -69 -26 -14
-12 -33 20 -33 56 0 23 3 25 30 20 55 -12 61 -3 39 66 -25 80 -26 82 -51 69
-18 -10 -20 -17 -15 -60 5 -40 3 -49 -12 -54 -16 -5 -17 -11 -10 -48 4 -23 8
-64 9 -90 0 -40 30 -127 44 -127 2 0 3 23 2 52 l-1 52 65 12 c36 7 68 13 71
13 10 1 36 -124 59 -279 25 -173 26 -170 -5 -170 -18 0 -25 -5 -25 -20 0 -16
-7 -20 -36 -20 -31 0 -35 -3 -28 -17 4 -10 9 -63 10 -118 1 -55 7 -111 12
-125 5 -14 7 -31 5 -37 -3 -8 5 -13 22 -13 l26 0 -2 123 -3 122 27 3 27 3 0
-155 0 -156 -44 0 c-25 0 -47 -4 -51 -10 -3 -5 1 -25 9 -45 13 -31 19 -35 51
-35 l35 0 -6 -57 c-10 -105 -23 -195 -27 -199 -2 -2 -35 -1 -72 3 l-68 8 2 81
2 81 -28 6 c-34 6 -43 -5 -43 -58 0 -22 -7 -83 -16 -135 -8 -52 -13 -107 -10
-122 3 -17 0 -28 -9 -32 -8 -3 -15 -13 -15 -23 -1 -10 -20 -85 -44 -167 l-43
-148 53 -24 c54 -24 59 -29 48 -58 -8 -20 -32 -20 -73 0 -17 9 -38 14 -45 11
-7 -3 -30 -45 -50 -94 -218 -513 -586 -972 -1032 -1288 -52 -37 -94 -73 -94
-80 0 -8 9 -20 20 -28 31 -21 102 -128 96 -143 -3 -7 -20 -20 -38 -27 -18 -8
-79 -42 -136 -76 -57 -33 -107 -61 -111 -61 -7 0 -61 105 -61 119 0 5 30 27
68 48 87 49 82 48 82 25 0 -19 -19 -39 -64 -67 -12 -8 -13 -14 -3 -31 12 -22
13 -22 86 22 41 24 80 45 85 47 6 2 -7 38 -28 80 -37 73 -41 76 -60 64 -116
-75 -400 -217 -518 -258 -59 -21 -67 -26 -62 -44 10 -33 38 -55 77 -62 37 -6
37 -5 28 21 -10 24 -8 27 22 39 17 8 50 20 72 27 22 7 57 21 77 31 21 11 41
19 46 19 8 0 62 -103 62 -119 0 -11 -230 -114 -238 -107 -3 3 -10 16 -16 28
-6 12 -25 25 -41 29 -17 4 -57 18 -90 30 -123 45 -232 27 -345 -56 -85 -62
-155 -88 -250 -93 -105 -5 -169 16 -250 83 -82 67 -121 122 -114 162 7 39 -8
89 -41 133 l-24 33 52 40 c29 22 81 53 115 69 78 36 243 72 292 63 65 -11 229
-68 258 -88 17 -13 41 9 35 33 -7 26 -23 38 -90 66 l-58 24 64 0 c53 0 75 -6
136 -36 68 -33 79 -36 144 -32 47 2 76 9 87 20 15 14 11 17 -48 37 -34 11 -85
24 -113 28 l-50 7 35 8 c19 5 112 12 205 17 131 7 182 13 220 28 28 11 75 28
105 37 60 20 120 53 120 66 0 13 -65 23 -108 17 l-37 -5 34 15 c19 8 68 23
109 33 85 21 100 30 51 30 -29 1 -31 2 -16 11 10 6 54 19 98 30 83 20 162 54
217 96 49 36 41 46 -33 41 -36 -2 -65 -3 -65 -1 0 9 87 44 144 57 76 18 137
47 183 87 37 31 29 39 -41 39 -30 0 -58 -9 -97 -33 -83 -50 -87 -51 -48 -15
20 18 82 88 137 154 88 106 111 128 181 168 69 40 141 105 141 128 0 11 -44
10 -73 -1 -14 -5 -41 -24 -61 -41 -52 -46 -44 -30 20 42 31 35 72 87 92 117
l34 54 -7 103 c-4 57 -10 104 -14 104 -4 0 -14 -12 -24 -27 -9 -16 -48 -61
-86 -101 -77 -80 -85 -101 -97 -247 -12 -140 -40 -190 -217 -391 -214 -241
-436 -389 -750 -499 -135 -48 -373 -100 -492 -109 l-80 -6 50 23 c67 32 115
78 115 111 0 14 -2 26 -4 26 -2 0 -41 -21 -87 -47 -133 -74 -175 -93 -247
-109 -199 -43 -254 -59 -327 -94 -44 -21 -97 -54 -117 -73 l-37 -34 -27 28
c-62 64 -251 141 -393 159 -94 12 -181 44 -251 91 -70 46 -160 90 -160 78 0
-5 6 -25 14 -43 16 -38 53 -67 122 -95 60 -24 57 -25 -106 -6 -295 35 -640
161 -850 312 -44 32 -106 76 -137 98 -31 22 -98 85 -149 140 -203 218 -239
283 -254 455 -5 63 -13 126 -16 140 -4 14 -52 69 -106 122 l-98 98 -2 -73 c-1
-39 -1 -85 0 -100 4 -46 59 -148 110 -201 l47 -49 -47 27 c-37 22 -54 26 -83
20 l-36 -7 32 -33 c18 -18 62 -49 98 -68 66 -35 106 -72 194 -177 67 -81 58
-84 -20 -7 -81 78 -120 100 -174 96 l-39 -3 43 -50 c45 -51 134 -101 222 -124
28 -7 57 -28 95 -67 30 -31 45 -51 33 -45 -12 6 -25 16 -28 21 -4 6 -28 22
-55 35 -49 25 -85 30 -127 19 -21 -6 -20 -7 11 -35 46 -40 130 -77 193 -85 35
-4 70 -18 105 -41 33 -21 43 -32 28 -28 -14 4 -50 9 -80 12 l-55 5 28 -29 c37
-40 112 -75 217 -103 81 -21 167 -57 158 -66 -2 -2 -20 1 -39 6 -18 6 -50 10
-69 10 -57 -1 -14 -16 78 -29 45 -6 93 -16 105 -23 12 -6 69 -31 127 -55 58
-24 90 -42 72 -39 -18 3 -63 19 -100 35 -90 39 -112 44 -147 31 l-30 -12 26
-22 c15 -13 78 -40 140 -61 103 -33 130 -38 274 -46 88 -5 174 -13 190 -18 29
-8 28 -8 -20 -16 -27 -4 -77 -18 -109 -30 -50 -19 -56 -24 -38 -29 12 -4 22
-12 22 -17 0 -5 31 -9 69 -9 59 0 81 5 142 35 62 29 84 35 139 34 l65 0 -43
-14 c-23 -7 -53 -20 -66 -28 -24 -16 -51 -73 -38 -80 4 -3 45 11 92 30 168 68
236 73 390 27 71 -21 201 -88 229 -118 l23 -24 -28 -42 c-22 -32 -28 -55 -30
-106 -4 -76 -25 -110 -110 -174 -78 -59 -137 -82 -220 -88 -96 -6 -161 15
-270 86 -158 105 -244 113 -418 39 -50 -21 -64 -33 -82 -69 -13 -24 -23 -48
-24 -54 0 -13 44 -30 185 -73 128 -38 226 -63 231 -59 2 2 -10 20 -26 40 -21
25 -43 39 -76 47 -63 16 -104 38 -104 56 0 8 5 15 10 15 6 0 10 5 10 10 0 6
-7 10 -15 10 -9 0 -15 -9 -15 -21 0 -19 -4 -21 -36 -16 -47 8 -50 11 -35 44
11 23 10 29 -5 40 -16 12 -15 13 11 13 61 0 231 -113 317 -210 59 -69 129
-110 189 -113 47 -2 40 -9 -28 -32 -29 -9 -53 -20 -53 -23 0 -9 74 -38 133
-53 26 -6 83 -9 127 -7 147 9 276 95 342 229 32 66 58 173 58 237 l-1 47 -29
-56 c-83 -162 -275 -288 -436 -289 -63 0 -174 28 -208 53 -16 12 -1 13 113 9
142 -5 199 7 316 65 100 51 210 199 207 280 -1 19 5 50 12 68 11 26 20 32 42
32 38 1 53 -22 54 -81 0 -105 109 -243 241 -308 113 -56 230 -74 353 -54 60 9
55 -7 -11 -36 -96 -42 -239 -33 -352 23 -69 34 -184 149 -230 231 l-31 53 0
-35 c0 -58 28 -170 58 -234 41 -87 117 -166 194 -202 57 -26 73 -29 168 -29
86 1 116 5 163 24 32 12 56 28 54 34 -2 6 -23 18 -48 26 l-44 15 52 12 c89 20
171 80 228 168 10 14 47 48 84 75 113 83 196 115 184 72 -3 -10 1 -29 7 -41
14 -25 6 -36 -32 -45 -23 -6 -27 -3 -33 24 -8 36 -12 37 -43 15 -22 -15 -22
-17 -5 -29 24 -18 12 -29 -67 -58 -41 -14 -64 -28 -62 -36 2 -8 -7 -25 -20
-39 l-23 -25 25 7 c14 4 50 14 80 22 282 77 651 235 837 360 36 24 67 44 69
44 17 0 172 112 328 238 105 85 372 354 451 456 271 347 441 650 564 1000 297
849 221 1796 -210 2585 -176 323 -354 558 -605 800 -203 196 -460 401 -501
401 -8 0 -29 -33 -48 -72 -56 -123 -50 -120 -136 -58 -40 29 -103 68 -141 87
-37 18 -68 35 -68 38 0 3 59 115 65 123 1 1 33 -15 71 -36 75 -43 95 -65 77
-83 -9 -9 -23 -5 -59 15 -57 32 -58 32 -72 1 -10 -21 -8 -27 11 -40 12 -8 28
-15 36 -15 8 0 34 -12 58 -26 24 -14 48 -24 53 -22 4 2 29 31 54 65 l46 62
-43 29 c-89 61 -328 182 -462 235 -243 95 -507 172 -616 179 l-44 3 -7 -60
c-4 -33 -5 -80 -2 -104 l6 -43 -54 6 c-144 18 -137 16 -129 39 7 18 15 21 58
18 49 -2 50 -2 57 30 3 17 6 55 6 83 l0 52 -147 17 c-80 10 -148 15 -150 13
-12 -12 34 -57 72 -72 38 -14 63 -39 52 -51 -2 -2 -32 4 -67 13 -79 20 -116
13 -202 -36 -38 -22 -68 -37 -68 -34 0 36 82 119 129 129 26 5 31 11 31 36 0
28 -1 29 -51 29 -44 0 -55 -4 -84 -33z m409 -73 c10 -26 7 -34 -14 -34 -13 0
-20 7 -20 18 0 33 23 44 34 16z m396 -77 c58 -16 132 -36 165 -45 33 -8 62
-16 64 -18 5 -4 -40 -133 -49 -139 -5 -3 -49 8 -98 25 -50 16 -100 30 -112 30
-16 0 -20 4 -16 16 3 9 6 20 6 26 0 14 50 4 119 -24 53 -21 54 -21 68 -2 23
31 12 48 -37 58 -25 4 -84 19 -132 31 -48 13 -90 20 -92 16 -3 -4 -8 -27 -12
-50 -6 -38 -9 -42 -33 -39 -23 3 -26 7 -24 38 1 19 4 54 8 77 6 41 7 42 38 36
18 -3 79 -20 137 -36z m531 -198 l23 -16 -29 -59 c-17 -32 -31 -61 -32 -63 -1
-2 -17 5 -35 16 -18 10 -70 34 -115 52 l-82 33 20 50 c38 96 27 92 133 45 51
-23 104 -49 117 -58z m534 -323 c33 -22 88 -62 123 -89 l63 -49 -42 -47 c-23
-25 -46 -50 -50 -55 -5 -5 -25 5 -46 23 -59 51 -154 121 -164 121 -17 0 -9 27
22 69 24 31 29 45 20 54 -15 15 -14 30 2 21 6 -4 39 -26 72 -48z m1219 -3122
l47 -7 -7 -56 c-12 -104 -60 -276 -75 -272 -8 2 -42 6 -77 9 -41 3 -62 9 -59
16 3 6 12 46 22 89 14 64 20 77 36 77 18 0 19 -6 17 -62 -3 -57 -1 -63 18 -66
19 -3 23 6 38 85 10 48 20 99 23 112 5 22 4 23 -36 19 -41 -3 -41 -3 -41 29 0
37 6 39 94 27z m-65 -413 c11 -7 9 -23 -14 -90 -14 -44 -31 -83 -35 -86 -5 -3
-18 3 -29 14 l-20 20 24 53 c14 29 25 60 25 69 0 28 22 37 49 20z m-184 -192
c4 -5 31 -21 61 -34 l54 -24 -40 -83 c-22 -46 -44 -84 -49 -86 -4 -1 -13 4
-20 12 -9 11 -7 25 9 65 26 66 25 69 -6 81 -33 13 -53 -1 -47 -33 3 -13 -9
-47 -26 -81 -17 -32 -28 -62 -25 -67 3 -5 23 -18 45 -29 21 -11 39 -24 39 -28
0 -5 -16 -35 -36 -68 -20 -32 -45 -74 -56 -91 -11 -18 -26 -33 -34 -33 -29 0
-25 31 11 97 l37 67 -24 18 c-13 10 -31 20 -40 24 -19 6 -24 39 -8 49 6 4 26
37 45 75 19 38 39 71 44 74 5 4 17 29 26 56 16 49 28 60 40 39z m-714 -346
c-5 -10 -17 -27 -26 -38 -16 -19 -16 -19 -4 5 13 27 29 50 36 50 2 0 -1 -8 -6
-17z m548 -7 c10 -11 8 -16 -9 -21 -26 -8 -33 -3 -24 19 8 20 18 20 33 2z
m-41 -69 c2 -9 -13 -44 -33 -79 -34 -58 -36 -63 -19 -75 24 -18 32 -16 39 7 7
24 15 25 40 6 18 -13 18 -14 -6 -43 -13 -17 -29 -38 -34 -48 -10 -16 -16 -14
-68 25 -31 24 -57 45 -57 47 0 2 13 23 28 46 16 23 41 64 56 90 27 47 48 56
54 24z m-131 -281 l52 -39 -31 -41 c-18 -23 -54 -69 -82 -103 l-49 -63 -43 35
c-23 19 -47 35 -53 35 -5 0 -13 5 -16 10 -8 13 63 100 81 100 26 0 26 -22 0
-49 -26 -27 -34 -51 -17 -51 5 0 16 -3 24 -6 10 -3 30 15 61 55 l46 59 -31 26
c-26 22 -30 31 -24 56 7 34 6 34 82 -24z m-217 -259 l51 -49 -109 -110 -110
-109 -46 49 c-25 27 -46 54 -46 60 0 13 114 112 129 112 20 0 11 -26 -22 -66
-19 -21 -32 -45 -30 -51 9 -25 39 -11 98 44 l59 56 -38 32 -39 32 19 26 c10
15 22 25 26 24 3 -1 29 -24 58 -50z m-1065 -180 c-17 -13 -17 -14 6 -20 42
-11 16 -15 -56 -8 -60 6 -66 8 -40 15 17 5 44 12 60 16 45 12 51 11 30 -3z
m752 -51 c4 -8 23 -31 42 -52 l35 -37 -45 -40 c-50 -43 -178 -137 -189 -137
-7 0 -74 100 -75 112 0 7 206 166 217 167 4 1 11 -5 15 -13z"/>
<path d="M6369 8288 c-10 -18 -8 -24 7 -35 10 -7 23 -13 30 -13 6 0 23 -9 38
-21 21 -17 29 -19 41 -9 30 25 17 48 -41 74 -31 14 -58 26 -60 26 -2 0 -9 -10
-15 -22z"/>
<path d="M7040 7910 c-10 -19 -6 -27 39 -71 28 -28 51 -54 51 -60 0 -15 19
-10 40 11 23 23 26 50 7 50 -7 0 -31 15 -53 33 -75 62 -71 61 -84 37z"/>
<path d="M7100 2933 c-25 -19 -49 -42 -53 -49 -23 -39 34 -38 88 1 17 12 38
25 47 28 15 5 16 10 6 32 -15 33 -34 31 -88 -12z"/>
<path d="M4880 8351 c0 -5 18 -11 40 -13 47 -4 54 7 9 16 -42 8 -49 8 -49 -3z"/>
<path d="M4750 8294 c-14 -2 -65 -9 -115 -15 -402 -47 -838 -211 -1200 -452
-297 -197 -616 -509 -807 -787 -111 -162 -105 -146 -67 -166 23 -11 34 -13 37
-5 7 22 117 177 190 271 102 129 362 386 497 492 407 317 893 523 1375 583 68
8 150 15 182 15 31 0 59 3 61 8 3 4 3 19 0 35 -5 26 -7 27 -67 26 -33 -1 -72
-3 -86 -5z"/>
<path d="M5332 8274 c3 -39 12 -44 88 -44 89 0 313 -34 462 -70 555 -132 1099
-468 1491 -918 77 -88 221 -280 230 -306 4 -11 57 31 57 44 0 4 -35 54 -77
111 -240 323 -531 586 -896 812 -110 69 -361 187 -507 240 -232 84 -497 139
-738 153 l-112 7 2 -29z"/>
<path d="M5007 7926 c-141 -51 -189 -148 -171 -350 9 -106 9 -107 -10 -84 -10
13 -30 47 -44 76 -30 66 -27 118 12 192 32 61 28 65 -77 58 -73 -5 -142 -31
-197 -76 l-25 -20 60 -7 60 -8 -47 -14 c-44 -12 -51 -12 -114 12 -37 14 -74
31 -82 38 -13 10 -14 8 -9 -15 4 -14 10 -34 13 -43 6 -15 1 -16 -42 -10 -64
10 -171 43 -179 55 -14 23 -22 -3 -14 -46 5 -26 8 -48 7 -49 -32 -18 -112 -82
-123 -98 -17 -25 -19 -110 -4 -177 l10 -44 -43 -35 c-24 -20 -72 -64 -108 -98
-74 -71 -74 -71 65 -48 50 8 113 15 140 15 l50 -1 -80 -38 c-62 -29 -94 -52
-142 -105 -66 -70 -77 -92 -42 -81 41 13 193 22 224 14 94 -26 144 -101 152
-227 9 -128 -23 -238 -101 -347 -13 -18 -10 -26 34 -94 27 -40 57 -93 67 -117
21 -50 26 -53 40 -21 23 51 118 147 146 147 4 0 -4 -17 -18 -37 -27 -41 -85
-208 -85 -246 1 -12 7 -33 15 -47 20 -35 18 -61 -5 -67 -11 -3 -20 -13 -20
-22 0 -9 9 -49 20 -89 11 -39 20 -89 20 -109 0 -21 9 -65 19 -98 18 -57 19
-58 26 -30 18 84 60 197 97 258 22 37 41 67 43 67 1 0 -6 -34 -16 -77 -28
-119 -42 -267 -35 -372 7 -97 36 -251 62 -323 l14 -41 -21 19 c-47 41 -144
184 -190 279 l-49 100 0 -50 c0 -61 -11 -80 -40 -72 -17 4 -12 -4 21 -37 24
-23 54 -60 66 -82 l22 -40 -24 -52 c-13 -29 -36 -64 -50 -78 l-26 -26 27 -39
c25 -37 136 -129 154 -129 5 0 5 15 0 33 -10 39 -18 167 -10 167 3 0 27 -37
54 -82 59 -97 209 -299 260 -347 l36 -35 1 55 c0 29 3 71 7 93 l7 39 32 -49
c18 -27 78 -105 135 -174 57 -69 110 -136 118 -149 15 -22 19 -18 160 198 80
122 159 240 175 264 l30 42 2 -30 c5 -59 25 -165 32 -169 4 -3 17 23 30 57 36
101 121 245 187 316 33 36 83 104 109 150 40 70 46 87 37 102 -7 10 -12 26
-12 35 0 20 38 127 74 208 29 66 33 84 12 67 -7 -6 -21 -33 -31 -59 -45 -119
-185 -344 -254 -406 -19 -18 -19 -13 8 51 32 78 67 217 76 308 6 54 -15 272
-31 322 -14 45 42 -55 61 -109 l22 -60 66 81 67 80 0 69 c0 87 -30 207 -74
297 -19 38 -33 71 -31 74 2 2 29 -21 58 -52 38 -38 63 -77 84 -127 l30 -72 17
66 c18 74 21 122 6 131 -5 3 -15 16 -21 28 -12 22 -12 22 10 3 11 -11 23 -17
25 -15 3 3 12 81 20 175 9 94 21 195 26 224 l10 54 -42 44 -43 44 42 -26 c51
-31 53 -31 53 -8 0 35 41 175 65 222 13 26 40 61 60 79 l36 32 -73 34 -73 34
46 1 c25 0 70 -4 100 -9 30 -5 83 -12 118 -16 l63 -6 -38 46 c-22 25 -73 71
-115 102 -73 54 -76 58 -67 82 6 15 11 61 12 105 l1 78 -50 46 c-67 61 -142
94 -216 96 -49 1 -62 5 -87 29 -45 43 -133 70 -232 70 -137 0 -262 -43 -360
-122 l-45 -36 36 65 c61 111 160 164 330 177 131 9 136 16 39 49 -75 26 -99
29 -205 29 -111 0 -125 -2 -183 -29 -134 -62 -210 -208 -215 -416 -1 -49 -4
-90 -7 -90 -9 0 -71 107 -86 147 -35 100 4 202 123 321 l72 72 -47 0 c-26 -1
-64 -7 -85 -14z m648 -275 c-63 -29 -194 -132 -275 -218 -69 -72 -160 -183
-160 -195 0 -2 34 13 76 34 71 35 132 56 259 89 42 11 61 25 120 87 90 95 127
114 225 116 65 1 84 -3 135 -29 l60 -30 0 -86 c0 -76 -4 -91 -26 -125 -15 -21
-44 -49 -66 -61 l-40 -23 -6 35 c-5 30 -1 39 29 69 64 64 35 156 -51 156 -45
0 -87 -16 -173 -67 -40 -24 -103 -58 -140 -75 l-67 -32 40 -3 c82 -6 125 -15
120 -24 -4 -5 -23 -9 -43 -10 -20 0 -46 -4 -57 -8 -17 -7 -14 -10 20 -21 89
-28 175 -82 240 -151 36 -38 65 -73 65 -78 0 -5 -19 -3 -42 4 -55 16 -128 25
-128 16 0 -4 13 -20 29 -35 16 -16 44 -58 63 -95 30 -61 33 -73 33 -161 0 -83
-3 -101 -26 -145 -27 -50 -114 -141 -158 -164 -37 -20 -20 -21 54 -2 39 10 93
21 120 25 l50 7 -50 -36 c-27 -20 -86 -55 -130 -77 l-80 -41 -46 27 c-26 14
-49 26 -52 26 -3 0 7 -24 23 -52 15 -29 30 -69 34 -88 7 -38 14 -33 -129 -85
-42 -15 6 -16 56 -1 69 21 79 20 79 -5 0 -24 -54 -50 -142 -70 -32 -7 -58 -16
-58 -21 0 -9 56 -4 144 13 27 5 51 7 54 5 3 -3 -3 -17 -12 -30 -18 -28 -56
-40 -156 -52 -65 -8 -65 -8 -25 -15 22 -4 60 -8 84 -8 43 -1 44 -2 27 -20 -10
-11 -41 -29 -69 -41 -67 -29 -166 -24 -248 12 -63 29 -88 57 -82 92 8 41 90
135 134 152 44 18 59 39 59 81 0 58 -26 63 -143 26 -53 -17 -115 -14 -217 11
-70 16 -84 12 -94 -30 -10 -36 16 -71 69 -94 54 -23 125 -112 125 -157 0 -40
-24 -59 -106 -88 -117 -41 -232 -28 -288 34 -16 18 -14 19 61 27 l78 8 -75 8
c-80 10 -133 33 -138 62 -3 15 2 17 40 11 71 -9 158 -13 158 -6 0 3 -44 16
-98 29 -103 23 -122 34 -122 64 0 22 27 23 94 3 49 -15 84 -20 74 -10 -3 3
-14 7 -24 9 -11 2 -45 14 -77 26 -57 21 -58 23 -52 53 3 18 19 58 34 89 l27
58 -50 -28 -51 -27 -101 55 c-56 30 -115 65 -130 77 l-29 23 35 -6 c38 -6 170
-31 210 -40 20 -4 18 -1 -10 14 -61 34 -139 118 -167 179 -54 118 -38 233 52
358 l53 73 -42 -5 c-22 -3 -65 -13 -93 -23 -29 -9 -53 -13 -53 -8 0 5 35 44
78 87 63 63 97 88 171 124 l92 45 -38 7 c-68 11 -72 23 -13 32 30 4 61 7 68 6
30 -3 -13 27 -66 47 -32 12 -85 40 -120 62 -103 67 -183 85 -230 52 -43 -29
-22 -122 35 -160 28 -19 28 -20 13 -50 l-16 -30 -43 26 c-61 35 -85 84 -89
182 l-4 76 40 25 c56 36 117 50 185 43 79 -8 108 -25 207 -120 88 -85 96 -89
270 -154 58 -22 113 -43 123 -47 15 -6 13 2 -12 47 -17 30 -31 58 -31 62 0 11
178 -142 189 -162 5 -9 12 -15 14 -12 3 3 35 66 72 140 83 167 143 260 185
290 52 37 136 59 230 59 l85 1 -40 -19z m-610 -1496 c24 -23 36 -83 15 -70 -5
3 -10 14 -10 24 0 21 -37 57 -65 64 -15 3 -13 5 8 6 17 1 37 -8 52 -24z m192
-3 c-15 -15 -27 -36 -27 -45 0 -9 -4 -17 -10 -17 -20 0 -10 59 12 74 39 27 55
19 25 -12z m5 -314 c64 -22 112 -32 155 -32 75 -1 78 -9 38 -95 -40 -85 -113
-168 -98 -111 3 11 2 36 -2 56 l-6 36 -32 -50 c-18 -28 -63 -89 -101 -135
l-69 -84 -66 79 c-36 43 -80 104 -98 135 l-31 56 -7 -37 c-4 -20 -5 -47 -3
-61 17 -86 -104 92 -125 185 -6 24 -4 25 36 22 28 -2 79 9 152 32 61 19 122
35 137 35 14 1 68 -13 120 -31z m363 -235 c15 -130 -34 -316 -121 -462 -52
-88 -171 -227 -155 -181 18 51 33 216 27 295 -5 74 -4 78 9 50 8 -16 14 -39
15 -50 0 -27 66 65 124 176 34 63 50 110 63 178 19 99 27 98 38 -6z m-909 -82
c21 -72 44 -117 117 -226 l60 -89 33 69 32 70 1 -128 c1 -132 21 -261 60 -386
19 -60 19 -60 -1 -50 -11 6 -53 42 -93 80 -125 119 -240 314 -271 457 -25 120
-16 267 23 362 3 8 10 -12 15 -45 4 -32 15 -84 24 -114z m483 -654 c18 -103
31 -193 29 -199 -6 -16 -66 141 -89 231 -33 130 -35 180 -8 263 l24 73 6 -90
c4 -49 21 -175 38 -278z"/>
<path d="M4730 6887 c0 -5 5 -17 10 -28 10 -18 7 -19 -78 -13 -89 7 -202 -2
-202 -14 0 -4 19 -18 43 -31 28 -15 52 -40 72 -74 46 -77 71 -91 169 -95 116
-5 129 -17 129 -113 l0 -74 28 59 c16 33 31 80 35 105 4 25 20 63 35 85 16 21
29 48 29 59 0 19 -1 19 -18 4 -24 -22 -71 -22 -102 -1 -14 9 -53 44 -87 78
-35 33 -63 57 -63 53z m-70 -119 c0 -25 43 -58 77 -58 35 0 44 -14 17 -24 -57
-22 -115 8 -129 67 -6 23 -4 27 14 27 12 0 21 -5 21 -12z"/>
<path d="M5460 6833 c-29 -32 -65 -66 -79 -75 -33 -22 -80 -23 -110 -1 -24 16
-24 16 -17 -13 4 -16 15 -40 24 -53 27 -37 29 -42 47 -106 10 -33 27 -79 39
-103 l21 -42 -3 73 c-4 71 -3 75 23 95 22 18 41 22 97 22 38 0 84 6 103 14 33
14 95 87 95 111 0 7 24 28 52 46 l53 34 -60 8 c-33 5 -100 6 -148 3 -84 -6
-87 -5 -77 13 27 52 0 40 -60 -26z m175 -80 c-15 -64 -84 -94 -131 -58 -18 14
-17 14 15 15 36 0 81 32 81 57 0 7 9 13 21 13 18 0 20 -4 14 -27z"/>
<path d="M4795 6100 c3 -5 8 -10 11 -10 2 0 4 5 4 10 0 6 -5 10 -11 10 -5 0
-7 -4 -4 -10z"/>
<path d="M6241 6999 c-12 -12 -31 -40 -40 -63 -38 -88 -83 -335 -96 -531 -6
-84 -19 -179 -32 -232 -4 -18 -1 -23 15 -23 12 0 24 -5 27 -11 8 -12 -29 -71
-87 -140 -37 -46 -50 -72 -25 -51 12 10 66 26 127 36 29 5 32 3 20 -7 -8 -7
-78 -77 -155 -156 l-140 -143 45 6 c25 4 64 12 86 17 80 21 80 18 -10 -166
-46 -93 -82 -172 -80 -174 2 -2 22 4 44 14 22 10 42 16 45 13 3 -2 -24 -54
-58 -114 -78 -135 -84 -149 -60 -139 10 4 52 15 93 25 41 10 82 21 90 24 12 5
18 -8 27 -69 16 -99 63 -210 135 -314 61 -90 147 -190 133 -156 -4 11 -10 63
-12 116 -4 76 -2 108 12 150 17 50 19 52 28 29 53 -139 147 -260 328 -420 l66
-59 -18 52 c-11 32 -18 82 -19 129 0 82 14 112 23 50 8 -46 41 -98 146 -230
100 -126 142 -191 168 -261 l20 -54 37 69 c20 39 67 107 104 153 141 174 165
208 192 264 l28 59 8 -48 c6 -42 -5 -136 -22 -191 -10 -31 159 152 225 244 35
48 81 124 101 167 l38 80 12 -45 c16 -59 15 -163 -3 -221 -8 -27 -13 -48 -11
-48 2 0 20 18 40 40 117 129 200 297 239 484 5 23 10 27 28 23 145 -33 202
-46 204 -44 1 1 -18 34 -41 73 -24 39 -58 97 -76 128 l-32 58 40 -21 c78 -40
78 -32 -14 150 -47 94 -83 173 -81 176 3 2 44 -3 92 -12 48 -9 89 -15 91 -12
3 2 -62 73 -143 156 -81 83 -143 151 -138 151 10 0 110 -25 148 -36 10 -3 -11
32 -53 86 -38 51 -70 96 -70 101 0 5 14 9 30 9 34 0 34 -1 19 36 -5 16 -17
105 -25 198 -40 459 -96 646 -194 646 -69 0 -159 -67 -372 -278 l-147 -146
-68 13 c-112 22 -277 25 -373 8 l-85 -15 -140 137 c-158 155 -205 195 -290
245 -68 41 -111 46 -144 15z m142 -134 c70 -56 178 -190 206 -257 19 -45 19
-49 3 -43 -22 10 -104 26 -108 22 -2 -2 18 -19 45 -39 48 -36 101 -98 84 -98
-5 0 -50 -35 -101 -78 -110 -94 -197 -142 -258 -142 -83 0 -96 19 -30 44 25 9
63 31 86 47 l42 30 -43 22 c-52 26 -78 67 -86 136 -6 55 -4 58 30 37 12 -8 47
-21 77 -30 l55 -16 -47 47 c-52 53 -87 121 -88 169 0 41 7 46 39 26 23 -15 25
-15 13 0 -31 38 -23 168 10 168 7 0 39 -20 71 -45z m1486 8 c9 -36 3 -95 -14
-137 -8 -18 -7 -18 18 -1 l27 17 0 -44 c0 -55 -39 -136 -86 -178 -19 -16 -31
-30 -26 -30 24 0 106 31 123 46 18 17 19 16 19 -26 0 -80 -57 -160 -115 -160
-8 0 -15 -3 -15 -7 1 -15 75 -64 122 -81 26 -9 48 -20 48 -24 0 -16 -56 -21
-108 -10 -70 15 -138 55 -245 146 l-88 75 48 49 c26 26 59 55 73 64 24 16 24
16 -20 8 -25 -5 -53 -12 -62 -15 -23 -9 -23 -3 3 48 51 100 160 228 239 281
37 24 48 20 59 -21z m-1106 -710 c47 -24 122 -107 143 -157 11 -25 22 -46 26
-46 4 0 8 26 10 58 l3 57 22 -35 c45 -73 75 -188 76 -289 l0 -94 19 38 c23 43
33 42 16 -1 -7 -19 -8 -42 -3 -60 8 -27 9 -26 18 25 9 53 10 54 22 30 12 -21
13 -14 13 66 -1 101 20 182 68 262 l29 48 3 -45 c4 -55 18 -72 26 -32 10 45
95 143 146 169 25 13 68 26 95 29 l50 7 -37 -35 c-32 -30 -78 -111 -78 -138 0
-5 12 -2 28 6 30 15 177 20 186 6 3 -5 -6 -15 -20 -22 -24 -13 -23 -15 48 -32
40 -9 83 -17 96 -18 39 0 24 -16 -50 -54 -71 -36 -76 -37 -168 -34 -110 3
-129 -5 -166 -63 -14 -22 -40 -49 -59 -60 -62 -37 -71 -129 -21 -227 26 -51
68 -97 52 -57 -32 81 -29 150 10 186 18 17 37 22 81 24 87 2 145 42 167 112 6
17 24 27 78 43 38 12 72 19 74 17 3 -2 -4 -15 -15 -28 -15 -19 -16 -25 -5 -34
11 -8 10 -19 -5 -63 -26 -75 -67 -122 -141 -161 l-65 -33 70 5 c101 8 198 56
267 130 l26 30 34 -21 c37 -23 96 -83 120 -123 l16 -25 -84 4 c-46 3 -84 1
-84 -3 0 -4 22 -30 49 -56 50 -49 119 -171 101 -177 -6 -2 -31 3 -57 12 -27 8
-72 18 -101 22 l-54 7 33 -59 c30 -52 34 -68 37 -152 3 -61 1 -97 -7 -105 -8
-8 -11 -7 -11 3 0 28 -55 92 -115 134 l-62 44 -6 -57 c-6 -67 -28 -114 -92
-196 -26 -33 -52 -71 -58 -85 -11 -22 -12 -19 -15 36 -2 48 4 82 27 150 37
111 45 154 36 200 l-6 37 -26 -54 -26 -54 -9 35 c-5 19 -16 49 -23 65 -12 29
-13 28 -19 -40 -4 -38 -12 -98 -17 -132 -31 -178 -185 -278 -328 -213 l-43 20
34 43 c19 23 54 55 77 71 84 56 104 127 50 177 l-31 28 -159 -2 c-155 -2 -159
-3 -184 -28 -14 -14 -28 -41 -31 -60 -5 -30 -1 -42 26 -72 18 -21 40 -37 50
-37 16 0 100 -98 100 -118 0 -21 -79 -44 -137 -40 -70 5 -121 36 -168 102 -45
64 -60 124 -60 242 0 56 -3 100 -7 98 -7 -4 -34 -83 -41 -119 -3 -19 -22 13
-54 90 -12 30 -16 -128 -4 -168 5 -17 19 -58 30 -89 12 -33 21 -82 21 -115 0
-57 0 -57 -17 -33 -10 14 -37 49 -61 79 -55 67 -81 126 -84 191 -2 27 -5 49
-8 47 -76 -41 -152 -104 -181 -151 l-17 -29 -7 47 c-12 79 12 183 58 250 l20
29 -63 -7 c-35 -4 -86 -16 -114 -26 -27 -11 -51 -18 -52 -17 -1 1 12 34 30 72
23 49 48 84 85 117 l52 47 -46 7 c-26 3 -66 4 -90 0 l-44 -6 32 46 c18 26 56
63 85 84 l53 38 48 -48 c27 -26 67 -58 89 -69 54 -28 146 -51 197 -50 l40 0
-50 25 c-86 42 -132 97 -160 190 -11 37 -11 44 1 44 20 0 17 10 -8 37 -12 13
-19 25 -17 28 3 2 35 -5 72 -16 60 -18 69 -24 87 -58 22 -44 71 -89 103 -95
12 -3 44 -7 70 -9 89 -8 127 -83 93 -183 -16 -46 -16 -47 4 -29 41 37 70 115
70 187 l0 68 -45 32 c-25 18 -54 47 -65 66 -29 49 -78 66 -170 58 -80 -7 -126
5 -209 57 l-35 21 48 12 c26 7 71 16 99 19 l51 7 -34 18 c-33 17 -33 18 -10
25 44 14 144 9 179 -8 l33 -16 -7 27 c-15 61 -70 142 -96 142 -5 0 -9 4 -9 8
0 13 107 -6 143 -25z m-123 -348 c0 -27 38 -55 75 -55 24 0 35 -5 35 -15 0
-22 -68 -31 -99 -14 -32 18 -56 60 -48 82 8 21 37 22 37 2z m918 -14 c5 -31
-20 -65 -58 -81 -27 -11 -36 -11 -66 4 -43 20 -36 37 11 29 41 -7 69 13 79 53
8 30 30 27 34 -5z m-327 -648 c17 -17 3 -30 -38 -36 -21 -3 -59 -9 -84 -12
-33 -5 -62 -2 -96 9 -28 9 -57 14 -65 11 -9 -4 -18 0 -21 9 -4 10 3 18 21 24
38 13 269 9 283 -5z m-106 -309 c28 -8 76 -15 108 -15 63 -1 63 0 13 -61 -31
-40 -46 -47 -46 -23 0 19 -5 19 -36 -1 -39 -26 -132 -26 -169 1 -56 40 -58 41
-53 10 5 -26 3 -25 -33 16 -21 24 -38 47 -39 51 0 4 19 5 43 2 28 -4 62 1 102
14 33 11 60 20 60 21 0 0 23 -6 50 -15z m162 -207 c-13 -28 -51 -81 -83 -117
-33 -36 -66 -80 -73 -98 -19 -45 -31 -30 -31 38 0 52 4 64 31 95 18 20 51 47
75 61 48 28 93 77 95 102 1 10 4 8 6 -6 2 -12 -6 -46 -20 -75z"/>
<path d="M2322 6978 c-19 -19 -14 -28 18 -28 17 0 30 4 30 8 0 9 -21 32 -30
32 -3 0 -11 -5 -18 -12z"/>
<path d="M2200 6889 c-144 -58 -145 -327 0 -491 l38 -44 -52 -79 c-29 -44 -83
-137 -120 -207 l-68 -128 46 0 c25 0 46 -2 46 -4 0 -6 -70 -158 -96 -208 -23
-45 -23 -48 -5 -48 10 0 35 7 56 16 20 8 39 13 42 10 3 -2 0 -20 -6 -39 -11
-34 -34 -257 -27 -264 2 -2 25 8 51 22 27 14 49 24 49 23 1 -2 11 -32 24 -68
12 -35 44 -102 70 -147 l47 -83 19 45 c10 25 22 45 26 45 11 0 29 -71 40 -157
20 -160 63 -273 145 -388 49 -68 181 -200 171 -170 -57 161 -77 228 -96 321
-12 60 -24 117 -27 127 -2 10 33 -21 79 -68 45 -48 104 -105 129 -126 l47 -39
-9 37 c-15 66 -10 67 29 7 21 -32 78 -104 127 -159 90 -102 152 -189 175 -244
l13 -31 36 62 c23 40 92 121 192 223 86 88 168 178 183 200 23 35 26 37 26 16
0 -19 4 -22 23 -18 l22 6 -21 -17 c-12 -9 -35 -46 -51 -82 -17 -36 -46 -85
-66 -110 -20 -24 -34 -46 -32 -48 8 -8 198 92 255 133 120 89 197 227 220 396
6 44 15 90 19 102 7 20 11 17 33 -26 l24 -49 46 99 c25 54 54 124 64 155 11
32 23 58 28 58 4 0 26 -14 48 -31 21 -17 41 -29 43 -27 5 5 -12 236 -21 285
l-6 33 42 -15 c23 -8 46 -15 51 -15 5 0 -20 58 -56 130 -36 71 -65 133 -65
136 0 4 22 4 48 2 l48 -5 -62 116 c-34 64 -89 157 -121 206 l-60 91 43 47 c67
75 88 140 89 274 0 124 -8 145 -76 192 -31 21 -42 23 -114 18 -97 -6 -178 -36
-301 -114 l-88 -55 -71 21 c-108 31 -200 41 -374 41 -176 0 -279 -11 -388 -41
l-73 -20 -60 41 c-160 109 -351 164 -440 129z m185 -94 c72 -19 148 -62 212
-119 l49 -44 72 24 c107 36 217 49 298 36 80 -13 108 -32 48 -32 -114 0 -239
-48 -305 -116 l-34 -35 60 31 c98 50 208 61 291 30 l29 -12 -25 -13 c-14 -7
-47 -16 -75 -20 -92 -13 -165 -59 -201 -127 -20 -38 -17 -45 9 -20 50 47 132
69 240 64 45 -2 41 -14 -13 -42 -70 -36 -107 -76 -120 -129 -10 -41 -9 -54 4
-80 20 -38 27 -40 20 -3 -7 37 28 87 96 135 l55 38 3 -27 c6 -49 -9 -95 -44
-133 -38 -43 -45 -91 -19 -146 l13 -30 1 38 c1 29 10 47 40 80 21 23 45 55 53
71 l15 30 13 -25 c7 -13 23 -32 36 -41 31 -25 64 -81 64 -109 0 -38 19 -8 26
41 5 40 2 50 -29 90 -27 36 -35 57 -39 103 -2 31 -3 57 -1 57 1 0 30 -21 63
-46 62 -47 90 -86 90 -126 1 -21 1 -22 11 -4 14 22 7 77 -14 129 -12 28 -33
48 -84 80 l-67 42 53 7 c65 8 150 -12 204 -48 22 -14 41 -24 43 -21 9 8 -43
72 -83 103 -31 24 -68 38 -138 55 -53 12 -93 25 -88 29 13 12 99 30 143 30 43
0 144 -30 189 -57 15 -9 6 4 -22 30 -59 56 -130 84 -236 93 -44 4 -78 10 -76
14 2 4 32 13 65 20 82 17 191 7 295 -28 l82 -27 48 42 c93 82 231 137 314 126
49 -7 65 -23 23 -23 -34 0 -132 -28 -132 -38 0 -4 23 -5 51 -4 62 5 115 -14
98 -34 -6 -8 -17 -14 -25 -14 -7 0 -25 -5 -41 -11 l-28 -11 38 -19 c50 -26 47
-39 -10 -39 -43 -1 -46 -2 -30 -14 15 -12 16 -17 6 -34 -15 -25 -71 -52 -105
-52 -23 0 -19 -7 47 -82 82 -95 160 -210 213 -315 l36 -73 -34 0 c-19 0 -37
-4 -40 -8 -2 -4 9 -29 25 -55 35 -57 36 -61 4 -53 -24 6 -24 6 -9 -29 35 -84
56 -280 34 -315 -8 -12 -16 -8 -47 22 l-38 37 -2 -82 c-1 -63 -7 -97 -28 -149
-15 -38 -29 -68 -32 -68 -3 0 -14 12 -25 26 l-21 25 -18 -41 c-25 -56 -117
-143 -179 -168 -27 -12 -50 -19 -50 -16 0 2 12 33 27 67 36 86 43 194 15 259
l-21 47 47 -15 c69 -21 84 -18 125 24 36 37 68 108 82 185 9 49 19 53 51 22
l27 -27 -5 83 c-4 60 -14 106 -36 162 l-30 77 34 0 c19 0 34 3 34 6 0 15 -93
145 -138 194 l-51 55 19 -42 c35 -74 22 -68 -42 18 -58 77 -135 149 -160 149
-5 0 4 -16 21 -35 53 -60 74 -112 69 -167 -7 -69 -41 -102 -121 -118 -100 -20
-124 -29 -185 -75 -31 -23 -66 -45 -77 -49 -17 -5 -20 -16 -22 -83 -1 -43 3
-94 9 -113 l12 -35 13 44 c21 71 35 81 119 81 118 0 150 25 161 130 3 33 9 62
12 64 3 2 26 7 51 11 l46 7 17 -56 c19 -58 15 -146 -5 -146 -6 0 -8 7 -4 15 3
9 -6 23 -24 37 -18 13 -28 28 -25 37 2 9 1 22 -4 30 -7 11 -11 10 -19 -5 -21
-43 -23 -72 -3 -77 28 -7 36 -59 15 -103 -19 -39 -69 -69 -136 -80 -50 -9 -48
-19 6 -33 84 -21 100 -16 171 51 37 34 75 79 86 100 20 39 20 39 0 94 -20 52
-41 224 -28 224 16 0 60 -110 73 -183 19 -110 18 -147 -7 -230 -44 -148 -130
-182 -300 -118 -69 27 -70 26 -28 -4 60 -45 109 -122 109 -173 0 -25 -8 -33
-57 -59 -32 -17 -80 -38 -106 -48 -57 -22 -71 -37 -25 -29 32 5 152 38 183 50
11 5 15 -1 15 -20 0 -22 -8 -30 -47 -47 -27 -12 -86 -29 -133 -39 l-85 -19 67
0 c36 -1 89 4 117 11 58 13 72 7 46 -22 -26 -29 -107 -50 -194 -51 -108 -1
-56 -20 61 -22 49 -1 88 -4 88 -7 -1 -10 -76 -57 -109 -68 -52 -18 -114 -14
-185 12 -95 34 -116 50 -116 89 0 42 76 135 130 158 40 18 80 62 80 88 0 29
-26 57 -41 44 -48 -37 -394 -32 -407 7 -6 18 -19 11 -31 -18 -18 -44 -1 -75
62 -110 63 -36 147 -131 147 -168 0 -13 -10 -32 -22 -43 -28 -27 -162 -71
-215 -71 -50 0 -140 37 -168 70 l-20 23 50 -6 c28 -3 73 -2 100 2 57 8 60 7
-89 29 -47 7 -76 18 -92 33 -34 32 -32 53 4 44 62 -17 110 -24 157 -24 49 1
48 1 -32 19 -117 27 -169 51 -175 84 -6 31 -7 31 67 5 33 -11 80 -23 105 -25
43 -4 41 -2 -56 45 -56 27 -105 54 -109 61 -14 23 18 101 62 151 25 27 43 49
40 49 -2 0 -30 -9 -62 -20 -102 -35 -178 -23 -224 36 -12 15 -32 62 -46 105
l-25 79 19 122 c18 118 53 228 73 228 5 0 7 -8 4 -17 -5 -21 -10 -122 -7 -173
l2 -35 22 55 c22 54 23 55 61 53 50 -3 66 -18 66 -60 0 -90 56 -143 153 -143
90 0 136 -38 137 -114 1 -37 29 26 32 70 6 107 -1 139 -38 180 -20 21 -31 31
-24 21 20 -27 3 -33 -28 -10 -50 37 -113 64 -179 78 -78 16 -105 33 -127 78
-30 65 -12 136 55 212 30 34 31 37 9 25 -51 -26 -114 -85 -166 -157 -30 -40
-57 -73 -60 -73 -6 0 -4 13 12 75 8 34 -82 -73 -116 -137 -37 -69 -34 -93 9
-83 l29 6 -28 -83 c-16 -46 -32 -117 -36 -158 l-7 -75 31 29 c35 32 33 34 51
-54 14 -65 49 -128 92 -164 33 -28 94 -35 143 -16 31 11 30 13 9 -36 -10 -24
-16 -68 -17 -114 0 -65 4 -84 32 -144 18 -38 31 -71 29 -73 -2 -1 -31 10 -64
27 -74 37 -145 106 -170 165 -10 25 -20 45 -23 45 -3 0 -15 -17 -26 -37 l-21
-37 -22 42 c-29 57 -53 167 -49 225 2 26 1 47 0 47 -2 0 -23 -16 -45 -36 l-42
-35 -3 66 c-3 68 21 222 40 259 9 19 8 18 -16 -3 -14 -14 -28 -22 -32 -19 -12
12 10 80 37 118 l29 40 -45 0 c-25 0 -45 3 -45 6 0 3 21 45 47 92 55 101 207
307 252 341 17 13 31 27 31 31 0 4 -21 11 -47 15 -27 3 -59 13 -71 22 -23 14
-23 15 -6 34 9 10 25 19 36 19 10 0 18 5 18 10 0 6 -30 10 -70 10 -38 0 -70 4
-70 8 0 10 45 32 65 32 8 0 15 4 15 8 0 8 -26 18 -98 38 -42 12 49 40 118 36
l35 -2 -40 20 c-22 11 -55 22 -72 26 -54 10 -37 28 32 33 12 0 47 -6 80 -14z
m-100 -296 c28 -17 52 -33 53 -34 7 -7 -42 -65 -54 -65 -33 0 -104 126 -104
184 0 16 6 12 28 -17 15 -20 50 -51 77 -68z m1828 59 c-9 -48 -37 -99 -72
-133 l-32 -29 -24 29 c-13 17 -24 33 -25 37 0 3 20 18 44 32 24 14 56 41 72
60 37 44 45 44 37 4z m-1385 -538 c7 -48 46 -67 72 -35 17 20 36 19 45 -2 9
-26 -29 -53 -77 -53 -50 0 -88 37 -88 87 0 30 3 34 23 31 15 -2 23 -11 25 -28z
m902 -2 c0 -48 -50 -98 -98 -98 -30 0 -62 29 -62 56 0 14 3 24 8 22 4 -2 19
-10 34 -17 33 -17 58 -2 58 34 0 13 6 25 13 28 23 7 47 -5 47 -25z m-542 -624
c21 -24 31 -74 15 -74 -5 0 -15 18 -24 39 -14 33 -23 41 -53 46 -20 4 -36 12
-36 17 0 19 75 -2 98 -28z m252 21 c0 -11 -11 -15 -35 -15 -29 0 -39 -6 -53
-30 -18 -31 -32 -39 -32 -17 0 20 30 58 54 67 34 14 66 12 66 -5z m-43 -351
c87 -29 119 -35 165 -32 l56 4 -5 -35 c-8 -55 -37 -112 -77 -156 -34 -36 -37
-38 -32 -15 3 14 2 39 -2 55 l-8 29 -21 -35 c-32 -50 -130 -139 -154 -139 -4
0 -10 17 -14 38 -3 20 -12 48 -20 62 l-14 25 -19 -45 c-11 -25 -23 -54 -26
-65 -7 -18 -17 -10 -82 58 -41 43 -74 85 -74 93 0 8 -5 14 -11 14 -12 0 -8
-67 6 -105 5 -13 -6 -6 -34 20 -38 36 -90 125 -106 183 -6 22 -5 22 47 16 44
-5 70 0 158 30 58 19 117 35 132 36 15 0 76 -16 135 -36z"/>
<path d="M2680 6272 c-13 -11 -20 -24 -16 -30 4 -7 39 -32 79 -58 40 -25 82
-55 95 -67 43 -40 21 -3 -38 64 -62 69 -72 89 -44 89 8 0 12 5 9 10 -10 16
-61 11 -85 -8z"/>
<path d="M3558 6278 c29 -15 28 -21 -10 -55 -18 -15 -51 -50 -73 -77 l-39 -48
89 57 c50 32 99 66 109 76 19 18 19 19 1 39 -13 14 -30 20 -59 19 -37 0 -39
-1 -18 -11z"/>
<path d="M2570 5977 c0 -20 8 -41 18 -50 19 -17 47 -24 40 -9 -3 4 -13 26 -23
50 -22 51 -35 54 -35 9z"/>
<path d="M2430 5932 c0 -56 86 -189 140 -217 36 -19 134 -19 175 0 l30 13 -26
1 c-37 1 -131 46 -159 76 -18 19 -25 40 -28 85 -5 69 -22 79 -48 29 l-16 -31
-34 33 c-32 31 -34 32 -34 11z"/>
<path d="M2012 6649 c-178 -450 -255 -847 -253 -1309 1 -491 108 -934 335
-1390 277 -556 688 -1011 1206 -1336 182 -114 479 -264 524 -264 7 0 18 11 24
25 10 21 8 27 -11 40 -12 8 -25 15 -28 15 -12 0 -159 69 -159 75 0 17 57 115
67 115 19 0 125 -49 145 -67 16 -14 20 -15 33 -2 7 8 16 25 20 39 6 24 1 28
-52 49 -114 46 -328 162 -468 255 -380 251 -688 580 -943 1006 -46 78 -108
201 -191 383 l-31 69 -57 -33 c-32 -18 -74 -43 -93 -56 -40 -27 -39 -28 -76
79 -26 76 -23 88 23 88 18 0 22 -6 25 -37 3 -44 6 -44 96 -12 48 18 61 27 57
39 -4 8 -25 85 -47 170 -22 85 -43 159 -46 165 -3 5 -7 20 -8 33 -2 13 -10 65
-18 115 -8 51 -18 113 -22 140 l-6 47 -54 0 c-39 0 -56 4 -60 15 -4 8 -16 15
-29 15 -21 0 -23 -4 -19 -42 11 -102 13 -108 39 -108 22 0 25 5 25 35 0 37 24
50 33 18 13 -45 17 -92 9 -97 -5 -3 -38 -8 -74 -12 l-66 -7 -6 29 c-8 36 -27
226 -24 230 2 1 35 5 74 9 l71 7 6 -31 c6 -26 11 -31 37 -31 l30 0 0 109 0
110 -27 3 -28 3 1 143 1 142 -28 0 c-15 0 -34 7 -43 15 -8 8 -31 15 -51 15
l-36 0 6 53 c9 71 11 77 35 77 15 0 20 -7 20 -29 0 -34 22 -58 37 -39 5 7 15
31 22 53 7 22 15 46 17 53 4 9 -10 12 -52 12 l-57 0 6 60 c10 89 17 110 37
110 29 0 42 -24 30 -54 -5 -15 -10 -37 -9 -49 0 -12 8 3 18 33 10 30 25 69 33
85 l16 30 -41 10 c-32 8 -43 16 -45 33 -3 17 2 22 20 22 13 0 35 -7 50 -14 29
-16 30 -15 56 33 16 30 9 37 -48 48 -41 8 -45 12 -43 36 2 30 48 185 61 204 6
10 17 10 46 2 21 -6 41 -8 44 -4 9 8 -28 73 -45 79 -8 3 -12 14 -9 28 3 13 0
52 -7 87 l-12 63 -13 -33z m-34 -1186 c-3 -92 -5 -108 -20 -111 -15 -3 -18 8
-20 80 -3 82 -3 83 -30 86 l-28 3 0 -102 0 -101 28 5 c16 3 35 7 43 9 10 2 15
-8 17 -33 l3 -36 -67 -7 c-36 -4 -68 -5 -71 -3 -6 6 -8 96 -5 215 l2 102 75 0
75 0 -2 -107z m46 -668 c4 -25 8 -48 8 -52 1 -5 -6 -9 -14 -11 -11 -2 -18 5
-20 20 -2 17 -9 23 -28 23 -28 0 -28 0 -15 -97 7 -49 5 -59 -9 -64 -9 -4 -19
-4 -22 -1 -9 8 -32 106 -40 163 -6 52 -6 53 22 57 16 2 48 5 70 6 l42 1 6 -45z
m55 -187 c33 -127 38 -203 7 -105 -5 16 -12 18 -49 12 -23 -4 -50 -11 -59 -16
-20 -11 -25 -4 -34 48 -7 45 8 66 25 35 7 -14 18 -18 36 -14 25 4 26 6 19 63
-6 54 -5 59 13 59 17 0 24 -14 42 -82z m135 -403 c9 -20 13 -42 10 -50 -4 -9
0 -15 9 -15 17 0 111 -185 102 -200 -3 -6 -12 -10 -18 -10 -15 0 -85 -56 -77
-62 3 -1 18 -10 33 -18 16 -8 39 -34 53 -57 22 -38 23 -43 8 -58 -24 -23 -34
-16 -71 54 -18 35 -45 77 -58 93 -14 16 -25 33 -25 37 0 5 20 19 45 32 48 25
54 39 30 59 -8 7 -25 44 -36 82 -22 73 -40 91 -65 66 -14 -13 -13 -22 10 -77
22 -55 23 -62 9 -77 -21 -20 -25 -14 -67 84 l-35 84 54 23 c29 13 56 29 60 34
10 17 14 14 29 -24z m245 -455 c60 -96 69 -116 54 -119 -10 -2 -36 -16 -57
-32 -22 -16 -45 -29 -50 -29 -6 0 -22 19 -35 41 -19 34 -20 43 -10 50 18 11
26 11 50 -1 52 -28 39 27 -31 132 -38 58 -48 87 -33 102 11 11 36 -21 112
-144z m149 -217 c1 -21 -1 -33 -5 -27 -10 13 -73 -2 -73 -17 0 -9 33 -54 91
-122 9 -11 49 1 49 15 0 5 -9 23 -21 39 -17 25 -18 30 -5 35 20 8 28 2 64 -44
l30 -38 -57 -46 -58 -46 -79 99 c-44 55 -79 105 -79 110 0 18 89 78 115 79 23
0 26 -4 28 -37z m267 -325 c3 -9 16 -19 28 -22 12 -4 41 -24 64 -45 l42 -38
-55 -54 -54 -53 -96 94 c-52 52 -100 103 -105 112 -7 14 -1 26 31 58 22 22 40
48 40 58 1 19 96 -80 105 -110z m224 -182 l22 -24 -36 -27 c-19 -16 -34 -31
-33 -35 6 -15 108 -90 122 -90 26 0 28 32 2 59 -13 14 -27 37 -31 50 -8 27 -8
27 77 -32 l57 -40 -40 -59 c-25 -37 -44 -56 -52 -51 -11 6 -144 108 -190 145
-21 16 -21 16 24 72 24 30 47 55 50 56 3 0 16 -11 28 -24z m292 -213 c35 -21
36 -27 4 -65 -14 -16 -25 -33 -25 -38 0 -10 134 -80 154 -80 9 0 16 2 16 4 0
2 3 11 6 19 3 10 -10 23 -40 41 -44 26 -61 56 -32 56 19 0 158 -80 154 -89 -2
-3 -16 -30 -33 -59 -22 -38 -35 -52 -47 -48 -33 8 -268 151 -268 162 0 16 63
113 73 113 5 1 22 -7 38 -16z"/>
<path d="M2791 3234 c-11 -8 -21 -20 -21 -26 0 -13 118 -128 131 -128 4 0 12
8 18 17 10 18 -9 49 -73 117 -31 32 -35 34 -55 20z"/>
<path d="M2114 6363 c-10 -16 -14 -16 -38 -4 -14 8 -28 12 -31 9 -13 -13 -37
-120 -29 -127 5 -5 23 -11 39 -14 29 -5 32 -2 64 59 30 58 35 94 14 94 -5 0
-13 -8 -19 -17z"/>
<path d="M8245 6050 c-11 -18 -2 -135 14 -168 15 -32 14 -35 -3 -47 -17 -13
-15 -17 25 -71 40 -54 43 -56 51 -35 7 19 -15 202 -38 309 -4 22 -37 31 -49
12z"/>
<path d="M5828 5633 c-24 -4 -26 -7 -18 -29 6 -14 10 -37 10 -52 1 -24 3 -23
25 18 25 46 31 71 18 69 -5 -1 -20 -4 -35 -6z"/>
<path d="M8210 5608 c1 -13 9 -39 20 -58 l19 -35 1 42 c0 23 3 48 6 57 5 12 0
16 -20 16 -20 0 -26 -5 -26 -22z"/>
<path d="M2109 5353 c-6 -105 26 -406 61 -565 114 -517 352 -974 721 -1385
317 -353 759 -640 1233 -799 159 -54 414 -110 586 -129 134 -15 167 -12 188
13 26 33 14 39 -95 45 -369 20 -813 160 -1183 371 -498 285 -934 765 -1186
1305 -123 264 -214 602 -244 905 -7 72 -19 129 -35 169 -14 33 -25 66 -25 74
0 20 -20 16 -21 -4z"/>
<path d="M4140 5250 c0 -80 -23 -139 -62 -157 -18 -8 -26 -24 -36 -70 -7 -37
-27 -84 -52 -122 -22 -33 -37 -61 -33 -61 3 0 50 29 104 65 119 79 201 153
235 212 l26 44 -48 42 c-27 23 -65 59 -84 79 -20 21 -39 38 -43 38 -4 0 -7
-32 -7 -70z"/>
<path d="M5781 5078 c-3 -54 -17 -120 -36 -165 -9 -20 -13 -38 -11 -41 3 -2
31 13 63 34 40 27 76 64 115 119 32 44 58 83 58 87 0 4 -17 4 -37 0 -49 -9
-114 -8 -134 1 -12 6 -16 0 -18 -35z"/>
<path d="M8318 5083 c-27 -4 -28 -7 -28 -59 0 -52 2 -55 23 -52 19 3 23 10 27
61 3 31 5 56 5 56 0 -1 -12 -4 -27 -6z"/>
<path d="M8100 5028 c0 -8 -18 -50 -39 -94 -24 -46 -56 -141 -80 -229 -61
-229 -114 -374 -206 -560 -252 -508 -584 -879 -1060 -1185 -192 -123 -497
-261 -720 -325 -181 -52 -482 -105 -597 -105 -37 0 -69 -3 -71 -8 -3 -4 4 -18
15 -32 19 -23 26 -25 97 -22 231 7 600 95 871 206 700 287 1279 857 1584 1560
68 155 108 274 156 461 38 148 68 331 56 342 -3 4 -6 0 -6 -9z"/>
<path d="M3645 4290 c-9 -14 3 -30 24 -30 34 0 58 -33 235 -327 l86 -141 0
-145 c0 -161 -2 -166 -68 -176 -24 -4 -38 -12 -40 -24 -3 -16 12 -17 202 -17
199 0 206 1 206 20 0 16 -7 20 -33 20 -22 0 -41 8 -55 23 -20 22 -22 33 -22
167 l0 144 102 170 c146 244 154 255 205 278 73 32 51 43 -95 46 -127 2 -132
2 -132 -18 0 -14 7 -20 21 -20 36 0 59 -19 59 -48 0 -17 -36 -89 -91 -182 -50
-85 -91 -156 -92 -157 -4 -3 -176 274 -193 309 -17 36 -17 38 1 58 10 11 26
20 37 20 11 0 18 7 18 20 0 19 -7 20 -184 20 -113 0 -187 -4 -191 -10z"/>
<path d="M4550 4280 c0 -13 7 -20 18 -20 42 0 70 -56 216 -437 80 -211 146
-387 146 -393 0 -5 22 -10 48 -10 l48 0 32 83 c269 695 272 702 302 730 17 15
39 27 50 27 13 0 20 7 20 20 0 20 -5 20 -132 18 -117 -3 -133 -5 -136 -20 -3
-14 3 -18 23 -18 14 0 37 -11 50 -24 28 -28 31 -10 -42 -216 -68 -190 -135
-360 -142 -360 -15 0 -211 513 -211 550 0 23 32 50 58 50 15 0 22 6 22 20 0
19 -7 20 -185 20 -178 0 -185 -1 -185 -20z"/>
<path d="M5480 4280 c0 -15 7 -20 25 -20 14 0 37 -11 50 -25 l25 -24 0 -349 0
-349 -23 -21 c-13 -12 -35 -22 -50 -22 -20 0 -27 -5 -27 -20 0 -19 7 -20 130
-20 123 0 130 1 130 20 0 15 -7 20 -25 20 -14 0 -37 11 -50 25 l-25 24 0 301
c0 165 3 300 8 300 4 0 69 -134 144 -298 130 -283 138 -297 164 -297 24 0 30
8 61 80 93 219 235 525 243 525 4 0 7 -139 6 -309 -1 -286 -2 -310 -20 -329
-10 -12 -34 -22 -54 -24 -26 -2 -38 -8 -40 -20 -3 -17 11 -18 197 -18 194 0
201 1 201 20 0 15 -7 20 -29 20 -20 0 -36 9 -51 27 -21 27 -21 33 -18 376 l3
349 24 19 c13 10 34 19 47 19 17 0 24 6 24 20 0 19 -7 20 -139 20 -99 0 -141
-4 -148 -12 -6 -7 -61 -125 -123 -263 -62 -137 -114 -252 -116 -254 -2 -2 -38
67 -79 155 -41 87 -99 206 -127 264 l-53 105 -142 3 c-138 2 -143 2 -143 -18z"/>
<path d="M3000 3957 c-20 -46 -21 -57 -11 -97 13 -51 57 -128 105 -185 l33
-38 -5 89 c-4 79 -9 98 -43 165 -22 42 -39 83 -39 92 0 36 -19 23 -40 -26z"/>
<path d="M7192 3968 c-7 -25 -27 -74 -45 -109 -32 -60 -34 -68 -28 -134 l6
-70 36 45 c99 125 120 216 65 285 l-23 28 -11 -45z"/>
<path d="M7351 3779 c-31 -12 -135 -103 -162 -140 l-21 -30 29 7 c81 20 157
59 204 107 27 27 49 54 49 58 0 12 -69 10 -99 -2z"/>
<path d="M3197 3713 c-11 -11 -8 -113 4 -136 13 -26 140 -157 152 -157 4 0 5
5 1 11 -4 7 -19 46 -33 88 -23 68 -97 199 -112 200 -3 1 -9 -2 -12 -6z"/>
<path d="M6978 3657 c-20 -35 -43 -85 -51 -112 -8 -28 -23 -68 -32 -90 l-17
-39 44 39 c64 57 127 133 134 162 8 31 -12 103 -29 103 -7 -1 -28 -29 -49 -63z"/>
<path d="M3401 3504 c-42 -53 -3 -108 149 -208 86 -56 248 -141 256 -134 1 2
-27 36 -64 75 -56 60 -73 73 -102 75 -30 3 -41 12 -80 64 -51 69 -125 154
-133 154 -3 0 -15 -12 -26 -26z"/>
<path d="M6715 3420 c-53 -64 -102 -114 -120 -121 -38 -16 -103 -56 -133 -83
l-24 -21 13 28 c17 37 8 42 -47 27 -36 -10 -60 -28 -103 -73 -31 -33 -69 -68
-86 -79 l-30 -20 37 5 c40 6 84 24 290 117 244 111 372 232 324 305 -9 14 -20
25 -24 25 -4 0 -47 -49 -97 -110z"/>
<path d="M3796 3251 c-3 -4 5 -28 17 -52 20 -40 30 -48 107 -81 47 -20 88 -37
93 -37 16 -2 -116 150 -143 164 -32 17 -66 20 -74 6z"/>
<path d="M4010 3195 c0 -73 112 -149 250 -168 l45 -7 -55 51 c-45 41 -104 76
-232 137 -5 2 -8 -4 -8 -13z"/>
<path d="M6205 3202 c-6 -5 -37 -19 -69 -31 -62 -23 -132 -69 -180 -120 -27
-28 -28 -31 -10 -31 35 0 133 29 184 55 52 27 75 53 90 104 8 31 3 39 -15 23z"/>
<path d="M3954 2524 c-14 -31 -24 -58 -22 -59 2 -2 21 5 43 16 22 10 67 27
100 37 l60 18 -64 22 c-36 12 -71 22 -78 22 -8 0 -25 -25 -39 -56z"/>
<path d="M3740 2539 c-14 -25 -19 -20 54 -53 64 -29 76 -26 79 20 2 27 -1 29
-34 30 -20 1 -46 7 -57 13 -28 15 -30 14 -42 -10z"/>
<path d="M6418 2532 c-58 -25 -65 -35 -49 -61 7 -11 20 -9 70 10 63 25 70 34
49 61 -12 14 -19 13 -70 -10z"/>
<path d="M6100 2536 c0 -9 30 -14 35 -6 4 6 -3 10 -14 10 -12 0 -21 -2 -21 -4z"/>
<path d="M5795 2464 c-75 -21 -214 -44 -265 -44 -53 0 -90 -9 -90 -21 0 -5 26
-16 57 -25 104 -30 245 -2 327 66 52 43 48 46 -29 24z"/>
<path d="M4446 2436 c73 -64 230 -92 323 -58 64 23 72 21 -148 53 -79 11 -154
25 -168 30 -45 17 -47 9 -7 -25z"/>
<path d="M5066 2186 c-26 -74 -60 -155 -76 -179 -30 -48 -89 -91 -112 -82 -8
3 -34 -6 -59 -19 -24 -14 -52 -26 -62 -26 -26 0 -16 -21 23 -47 67 -46 193
-16 233 54 10 18 34 75 52 125 19 51 34 88 35 81 0 -20 -49 -169 -75 -225 -39
-84 -34 -138 20 -245 47 -91 72 -130 78 -122 2 2 23 36 45 74 78 132 88 195
47 283 -25 54 -55 147 -54 166 0 6 13 -22 29 -63 47 -119 94 -156 190 -149 37
3 67 12 88 27 37 26 41 41 11 41 -12 0 -37 9 -56 21 -18 12 -40 18 -49 15 -36
-14 -113 50 -146 122 -22 50 -19 65 6 27 9 -14 23 -25 32 -25 16 0 16 0 -41
66 -20 24 -46 72 -59 110 -32 93 -37 104 -45 104 -4 0 -29 -60 -55 -134z"/>
</g>
</svg>
